<svg id="Layer_1" data-name="Layer 1" xmlns="http://www.w3.org/2000/svg" viewBox="0 0 36 36"><defs><style>.cls-1{fill:#fff;fill-rule:evenodd;}</style></defs><path class="cls-1" d="M23.51,4.5H35.26V2H23.51ZM0,4.5H11.75V2H0ZM23.51,9.4H35.26V6.92H23.51ZM0,9.4H11.75V6.92H0Zm23.51,4.92H35.26V11.84H23.51ZM0,14.32H11.75V11.84H0Zm0,4.92H35.26V16.76H0Zm23.51,4.92H35.26V21.68H23.51ZM0,24.16H11.75V21.68H0Zm23.51,4.92H35.26V26.6H23.51ZM0,29.08H11.75V26.59H0ZM23.51,34H35.26V31.52H23.51ZM0,34H11.75V31.52H0Z"/></svg>