<svg id="Layer_1" data-name="Layer 1" xmlns="http://www.w3.org/2000/svg" xmlns:xlink="http://www.w3.org/1999/xlink" viewBox="0 0 94 94"><defs><style>.cls-1{fill:#fff;}.cls-2{fill:url(#radial-gradient);}</style><radialGradient id="radial-gradient" cx="-823.19" cy="582.84" r="1.27" gradientTransform="matrix(94.06, 0, 0, -93.77, 77425.79, 54644.78)" gradientUnits="userSpaceOnUse"><stop offset="0" stop-color="#009bbd"/><stop offset="0.17" stop-color="#009bbd"/><stop offset="1" stop-color="#1b296b"/></radialGradient></defs><g id="Symbols"><g id="UK-Header"><rect id="Rectangle-8" class="cls-1" x="-19.03" y="-15" width="1440" height="126"/><g id="Group-10"><g id="UoN_Logo_RGB" data-name="UoN Logo RGB"><g id="New_Logo" data-name="New Logo"><rect id="Rectangle-path" class="cls-2" x="-0.03" y="0.15" width="94.06" height="93.77"/><g id="Castle"><g id="Group"><path id="Shape" class="cls-1" d="M63.5,22.7A26.47,26.47,0,0,0,56.65,20v5.57a36.86,36.86,0,0,1,6.85,2.37Z"/><path id="Shape-2" data-name="Shape" class="cls-1" d="M54.18,41A1.24,1.24,0,0,0,53,42.24l-.35,11.4h3.22l-.4-11.4A1.22,1.22,0,0,0,54.18,41Z"/><path id="Shape-3" data-name="Shape" class="cls-1" d="M57.05,72.37a18.39,18.39,0,0,1-9-2.36,25,25,0,0,0-11.79-3.16A14.67,14.67,0,0,0,23.5,73.78a22.06,22.06,0,0,1,11.69-3.52,18.58,18.58,0,0,1,9.11,2.37c3.18,1.65,5.9,2.81,9.88,2.81S62.34,74,66.07,69.11A13.81,13.81,0,0,1,57.05,72.37Z"/><path id="Shape-4" data-name="Shape" class="cls-1" d="M38.11,65a22.16,22.16,0,0,1,10.53,3V56.75L47,54.69V39l3.23-5-1.36,4.77a24.94,24.94,0,0,1,2.82-.2,23.93,23.93,0,0,1,8.56,1.51l3.23-3v-8a40.89,40.89,0,0,0-6.85-2.36A42.66,42.66,0,0,0,52,26V19a36.54,36.54,0,0,0-5.29-.35,41.48,41.48,0,0,0-5,.3v6.63a46.41,46.41,0,0,0-4.58.86V19.89a33,33,0,0,0-7.36,3V36.51l3.13,3-.91,15.27-2.52,2.51V66.1l.86.9A16.73,16.73,0,0,1,38.11,65Zm-.46-22.75a1.21,1.21,0,1,1,2.42,0l.41,11.4H37.25Z"/></g></g></g></g></g></g></g></svg>